<?xml version="1.0" encoding="UTF-8"?>
<svg width="18px" height="18px" viewBox="0 0 18 18" version="1.1" xmlns="http://www.w3.org/2000/svg" xmlns:xlink="http://www.w3.org/1999/xlink">
    <!-- Generator: Sketch 46.2 (44496) - http://www.bohemiancoding.com/sketch -->
    <title>noun_873306_cc</title>
    <desc>Created with Sketch.</desc>
    <defs></defs>
    <g id="Page-1" stroke="none" stroke-width="1" fill="none" fill-rule="evenodd" opacity="0.5">
        <g id="VIDBITS-Desktop-Main" transform="translate(-907.000000, -634.000000)" stroke="#FFFFFF" fill-rule="nonzero" stroke-width="0.95" fill="#FFFFFF">
            <g id="Group-3" transform="translate(79.000000, 159.000000)">
                <g id="noun_873306_cc" transform="translate(829.000000, 476.000000)">
                    <g id="Group">
                        <path d="M0,0 L0,0.39999975 L0,5.19999675 L0.8,5.19999675 L0.8,0.7999995 L5.2,0.7999995 L5.2,0 L0.4,0 L0,0 Z M10.8,0 L10.8,0.7999995 L15.2,0.7999995 L15.2,5.19999675 L16,5.19999675 L16,0.39999975 L16,0 L15.6,0 L10.8,0 Z M0,10.8000032 L0,15.6000002 L0,16 L0.4,16 L5.2,16 L5.2,15.2000005 L0.8,15.2000005 L0.8,10.8000032 L0,10.8000032 Z M15.2,10.8000032 L15.2,15.2000005 L10.8,15.2000005 L10.8,16 L15.6,16 L16,16 L16,15.6000002 L16,10.8000032 L15.2,10.8000032 Z" id="Shape"></path>
                    </g>
                </g>
            </g>
        </g>
    </g>
</svg>